<mxfile host="Electron" agent="Mozilla/5.0 (Windows NT 10.0; Win64; x64) AppleWebKit/537.36 (KHTML, like Gecko) draw.io/28.1.2 Chrome/138.0.7204.243 Electron/37.4.0 Safari/537.36" version="28.1.2">
  <diagram name="Page-1" id="iQ5szeSRGFmdCxCsRolp">
    <mxGraphModel dx="655" dy="436" grid="1" gridSize="10" guides="1" tooltips="1" connect="1" arrows="1" fold="1" page="1" pageScale="1" pageWidth="850" pageHeight="1100" math="0" shadow="0">
      <root>
        <mxCell id="0" />
        <mxCell id="1" parent="0" />
        <mxCell id="q0kmvJ9VPLgeH1oMg-wd-1" value="&lt;font style=&quot;font-size: 16px;&quot;&gt;AXI&lt;/font&gt;&lt;div&gt;&lt;font style=&quot;font-size: 16px;&quot;&gt;INTERCONN.&lt;/font&gt;&lt;/div&gt;&lt;div&gt;&lt;font style=&quot;font-size: 16px;&quot;&gt;&lt;br&gt;&lt;/font&gt;&lt;/div&gt;" style="rounded=0;whiteSpace=wrap;html=1;strokeColor=#314354;fillColor=#647687;fontColor=#ffffff;" parent="1" vertex="1">
          <mxGeometry x="430" y="120" width="120" height="530" as="geometry" />
        </mxCell>
        <mxCell id="q0kmvJ9VPLgeH1oMg-wd-37" value="" style="swimlane;startSize=0;" parent="1" vertex="1">
          <mxGeometry x="30" y="110" width="710" height="550" as="geometry" />
        </mxCell>
        <mxCell id="q0kmvJ9VPLgeH1oMg-wd-6" value="TIMER" style="rounded=0;whiteSpace=wrap;html=1;fillColor=#008a00;fontColor=#ffffff;strokeColor=#005700;" parent="q0kmvJ9VPLgeH1oMg-wd-37" vertex="1">
          <mxGeometry x="570" y="130" width="120" height="50" as="geometry" />
        </mxCell>
        <mxCell id="XJ7JOTKwsbmlr56BRBx6-19" value="" style="endArrow=classic;startArrow=classic;html=1;rounded=0;entryX=0;entryY=0.5;entryDx=0;entryDy=0;" edge="1" parent="q0kmvJ9VPLgeH1oMg-wd-37">
          <mxGeometry width="50" height="50" relative="1" as="geometry">
            <mxPoint x="520" y="155" as="sourcePoint" />
            <mxPoint x="569" y="155" as="targetPoint" />
          </mxGeometry>
        </mxCell>
        <mxCell id="q0kmvJ9VPLgeH1oMg-wd-36" value="" style="endArrow=classic;startArrow=classic;html=1;rounded=0;entryX=0;entryY=0.5;entryDx=0;entryDy=0;" parent="q0kmvJ9VPLgeH1oMg-wd-37" edge="1">
          <mxGeometry width="50" height="50" relative="1" as="geometry">
            <mxPoint x="521" y="384.71" as="sourcePoint" />
            <mxPoint x="570" y="384.71" as="targetPoint" />
          </mxGeometry>
        </mxCell>
        <mxCell id="q0kmvJ9VPLgeH1oMg-wd-33" value="Camera interface" style="rounded=0;whiteSpace=wrap;html=1;fillColor=#1ba1e2;strokeColor=#006EAF;fontColor=#ffffff;gradientColor=#B4F5FF;" parent="q0kmvJ9VPLgeH1oMg-wd-37" vertex="1">
          <mxGeometry x="570" y="220" width="120" height="90" as="geometry" />
        </mxCell>
        <mxCell id="q0kmvJ9VPLgeH1oMg-wd-34" value="" style="endArrow=classic;startArrow=classic;html=1;rounded=0;entryX=0;entryY=0.5;entryDx=0;entryDy=0;" parent="q0kmvJ9VPLgeH1oMg-wd-37" edge="1">
          <mxGeometry width="50" height="50" relative="1" as="geometry">
            <mxPoint x="521" y="234.71" as="sourcePoint" />
            <mxPoint x="570" y="234.71" as="targetPoint" />
          </mxGeometry>
        </mxCell>
        <mxCell id="q0kmvJ9VPLgeH1oMg-wd-14" value="" style="endArrow=classic;startArrow=classic;html=1;rounded=0;exitX=1;exitY=0.5;exitDx=0;exitDy=0;" parent="q0kmvJ9VPLgeH1oMg-wd-37" source="q0kmvJ9VPLgeH1oMg-wd-2" edge="1">
          <mxGeometry width="50" height="50" relative="1" as="geometry">
            <mxPoint x="180.74" y="119.99999999999994" as="sourcePoint" />
            <mxPoint x="400" y="122.07999999999998" as="targetPoint" />
          </mxGeometry>
        </mxCell>
        <mxCell id="XJ7JOTKwsbmlr56BRBx6-24" value="&lt;font style=&quot;font-size: 10px;&quot;&gt;AXI stream&lt;/font&gt;" style="text;html=1;align=center;verticalAlign=middle;resizable=0;points=[];autosize=1;strokeColor=default;fillColor=none;" vertex="1" parent="q0kmvJ9VPLgeH1oMg-wd-37">
          <mxGeometry x="570" y="220" width="70" height="30" as="geometry" />
        </mxCell>
        <mxCell id="XJ7JOTKwsbmlr56BRBx6-27" value="BRAM (Inside PL)" style="rounded=0;whiteSpace=wrap;html=1;fillColor=#e3c800;fontColor=#000000;strokeColor=#FFD966;fillStyle=auto;strokeWidth=5;perimeterSpacing=0;" vertex="1" parent="q0kmvJ9VPLgeH1oMg-wd-37">
          <mxGeometry x="230" y="320" width="130" height="60" as="geometry" />
        </mxCell>
        <mxCell id="q0kmvJ9VPLgeH1oMg-wd-28" value="DMA" style="rounded=0;whiteSpace=wrap;html=1;fillColor=#0050ef;fontColor=#ffffff;strokeColor=#001DBC;" parent="q0kmvJ9VPLgeH1oMg-wd-37" vertex="1">
          <mxGeometry x="220" y="410" width="140" height="100" as="geometry" />
        </mxCell>
        <mxCell id="q0kmvJ9VPLgeH1oMg-wd-29" value="" style="endArrow=classic;startArrow=classic;html=1;rounded=0;entryX=0;entryY=0.5;entryDx=0;entryDy=0;exitX=1.005;exitY=0.78;exitDx=0;exitDy=0;exitPerimeter=0;" parent="q0kmvJ9VPLgeH1oMg-wd-37" target="q0kmvJ9VPLgeH1oMg-wd-28" edge="1" source="q0kmvJ9VPLgeH1oMg-wd-4">
          <mxGeometry width="50" height="50" relative="1" as="geometry">
            <mxPoint x="183" y="450" as="sourcePoint" />
            <mxPoint x="230" y="450.0000000000002" as="targetPoint" />
          </mxGeometry>
        </mxCell>
        <mxCell id="q0kmvJ9VPLgeH1oMg-wd-4" value="&lt;font style=&quot;font-size: 16px;&quot;&gt;CNN/ACF&lt;br&gt;accelerator&lt;/font&gt;" style="rounded=0;whiteSpace=wrap;html=1;fillColor=#a20025;fontColor=#ffffff;strokeColor=#6F0000;" parent="q0kmvJ9VPLgeH1oMg-wd-37" vertex="1">
          <mxGeometry x="10" y="250" width="172.5" height="270" as="geometry" />
        </mxCell>
        <mxCell id="XJ7JOTKwsbmlr56BRBx6-29" value="" style="endArrow=classic;startArrow=classic;html=1;rounded=0;entryX=0;entryY=0.5;entryDx=0;entryDy=0;exitX=1.012;exitY=0.391;exitDx=0;exitDy=0;exitPerimeter=0;" edge="1" parent="q0kmvJ9VPLgeH1oMg-wd-37" source="q0kmvJ9VPLgeH1oMg-wd-4">
          <mxGeometry width="50" height="50" relative="1" as="geometry">
            <mxPoint x="181.98250000000007" y="343.6" as="sourcePoint" />
            <mxPoint x="230" y="356.39" as="targetPoint" />
          </mxGeometry>
        </mxCell>
        <mxCell id="q0kmvJ9VPLgeH1oMg-wd-2" value="&lt;font style=&quot;font-size: 16px;&quot;&gt;RISCV32I&lt;/font&gt;" style="rounded=0;whiteSpace=wrap;html=1;fillColor=#0050ef;fontColor=#ffffff;strokeColor=#001DBC;" parent="q0kmvJ9VPLgeH1oMg-wd-37" vertex="1">
          <mxGeometry x="150" y="40" width="170" height="160" as="geometry" />
        </mxCell>
        <mxCell id="XJ7JOTKwsbmlr56BRBx6-30" value="" style="edgeStyle=orthogonalEdgeStyle;rounded=0;orthogonalLoop=1;jettySize=auto;html=1;" edge="1" parent="q0kmvJ9VPLgeH1oMg-wd-37" source="q0kmvJ9VPLgeH1oMg-wd-5" target="q0kmvJ9VPLgeH1oMg-wd-2">
          <mxGeometry relative="1" as="geometry" />
        </mxCell>
        <mxCell id="q0kmvJ9VPLgeH1oMg-wd-5" value="BootROM" style="rounded=0;whiteSpace=wrap;html=1;" parent="q0kmvJ9VPLgeH1oMg-wd-37" vertex="1">
          <mxGeometry x="50" y="40" width="60" height="160" as="geometry" />
        </mxCell>
        <mxCell id="XJ7JOTKwsbmlr56BRBx6-31" value="Display interface" style="rounded=0;whiteSpace=wrap;html=1;fillColor=#1ba1e2;strokeColor=#006EAF;fontColor=#ffffff;gradientColor=#B4F5FF;" vertex="1" parent="q0kmvJ9VPLgeH1oMg-wd-37">
          <mxGeometry x="570" y="340" width="120" height="90" as="geometry" />
        </mxCell>
        <mxCell id="XJ7JOTKwsbmlr56BRBx6-37" value="&lt;font style=&quot;font-size: 10px; color: rgb(0, 0, 0);&quot;&gt;Soft IP&lt;/font&gt;" style="text;html=1;align=center;verticalAlign=middle;resizable=0;points=[];autosize=1;strokeColor=#050505;fillColor=none;" vertex="1" parent="q0kmvJ9VPLgeH1oMg-wd-37">
          <mxGeometry x="605" y="400" width="50" height="30" as="geometry" />
        </mxCell>
        <mxCell id="XJ7JOTKwsbmlr56BRBx6-38" value="&lt;font style=&quot;font-size: 10px; color: rgb(0, 0, 0);&quot;&gt;Soft IP&lt;/font&gt;" style="text;html=1;align=center;verticalAlign=middle;resizable=0;points=[];autosize=1;strokeColor=#050505;fillColor=none;" vertex="1" parent="q0kmvJ9VPLgeH1oMg-wd-37">
          <mxGeometry x="605" y="280" width="50" height="30" as="geometry" />
        </mxCell>
        <mxCell id="XJ7JOTKwsbmlr56BRBx6-42" value="OCM (Inside PL)&lt;br&gt;Frame buffer for fast preprocessig" style="rounded=0;whiteSpace=wrap;html=1;fillColor=#e3c800;fontColor=#000000;strokeColor=#FFD966;fillStyle=auto;strokeWidth=5;perimeterSpacing=0;" vertex="1" parent="q0kmvJ9VPLgeH1oMg-wd-37">
          <mxGeometry x="230" y="260" width="130" height="60" as="geometry" />
        </mxCell>
        <mxCell id="XJ7JOTKwsbmlr56BRBx6-43" value="" style="endArrow=classic;startArrow=classic;html=1;rounded=0;entryX=0.002;entryY=0.723;entryDx=0;entryDy=0;entryPerimeter=0;exitX=1;exitY=0.5;exitDx=0;exitDy=0;" edge="1" parent="q0kmvJ9VPLgeH1oMg-wd-37">
          <mxGeometry width="50" height="50" relative="1" as="geometry">
            <mxPoint x="360" y="290.43" as="sourcePoint" />
            <mxPoint x="402" y="289.57" as="targetPoint" />
          </mxGeometry>
        </mxCell>
        <mxCell id="kXgK-tWAh2oBICFdKCKE-1" value="&lt;b style=&quot;forced-color-adjust: none; color: rgb(240, 240, 240); font-family: Helvetica; font-style: normal; font-variant-ligatures: normal; font-variant-caps: normal; letter-spacing: normal; orphans: 2; text-indent: 0px; text-transform: none; widows: 2; word-spacing: 0px; -webkit-text-stroke-width: 0px; white-space: normal; background-color: rgb(27, 29, 30); text-decoration-thickness: initial; text-decoration-style: initial; text-decoration-color: initial; box-shadow: none !important;&quot;&gt;&lt;font style=&quot;font-size: 17px;&quot;&gt;RISC-V Based Object-Detection FPGA implementation Architecture v0.2 (2025)&lt;/font&gt;&lt;/b&gt;" style="text;whiteSpace=wrap;html=1;align=center;" parent="1" vertex="1">
          <mxGeometry x="270" y="30" width="510" height="50" as="geometry" />
        </mxCell>
        <mxCell id="XJ7JOTKwsbmlr56BRBx6-15" value="" style="swimlane;startSize=0;" vertex="1" parent="1">
          <mxGeometry x="950" y="70" width="140" height="210" as="geometry" />
        </mxCell>
        <mxCell id="XJ7JOTKwsbmlr56BRBx6-16" value="1GB DDR3&amp;nbsp;&lt;span style=&quot;background-color: transparent; color: light-dark(rgb(0, 0, 0), rgb(255, 255, 255));&quot;&gt;ram&lt;/span&gt;&lt;div&gt;&amp;nbsp;of FPGA board&lt;/div&gt;" style="text;html=1;align=center;verticalAlign=middle;resizable=0;points=[];autosize=1;strokeColor=none;fillColor=none;" vertex="1" parent="XJ7JOTKwsbmlr56BRBx6-15">
          <mxGeometry x="15" y="10" width="110" height="40" as="geometry" />
        </mxCell>
        <mxCell id="XJ7JOTKwsbmlr56BRBx6-14" value="DMEM" style="rounded=0;whiteSpace=wrap;html=1;fillColor=#e3c800;fontColor=#000000;strokeColor=#FFD966;fillStyle=auto;strokeWidth=5;perimeterSpacing=0;" vertex="1" parent="XJ7JOTKwsbmlr56BRBx6-15">
          <mxGeometry x="10" y="140" width="120" height="60" as="geometry" />
        </mxCell>
        <mxCell id="XJ7JOTKwsbmlr56BRBx6-13" value="IMEM" style="rounded=0;whiteSpace=wrap;html=1;fillColor=#e3c800;fontColor=#000000;strokeColor=#FFD966;fillStyle=auto;strokeWidth=5;perimeterSpacing=0;" vertex="1" parent="XJ7JOTKwsbmlr56BRBx6-15">
          <mxGeometry x="10" y="60" width="120" height="60" as="geometry" />
        </mxCell>
        <mxCell id="XJ7JOTKwsbmlr56BRBx6-17" value="PS (Processing System)" style="rounded=0;whiteSpace=wrap;html=1;fillColor=#1ba1e2;strokeColor=#006EAF;fontColor=#ffffff;" vertex="1" parent="1">
          <mxGeometry x="770" y="120" width="140" height="100" as="geometry" />
        </mxCell>
        <mxCell id="XJ7JOTKwsbmlr56BRBx6-18" value="" style="endArrow=classic;startArrow=classic;html=1;rounded=0;entryX=0;entryY=0.5;entryDx=0;entryDy=0;" edge="1" parent="1" target="XJ7JOTKwsbmlr56BRBx6-17">
          <mxGeometry width="50" height="50" relative="1" as="geometry">
            <mxPoint x="552" y="170" as="sourcePoint" />
            <mxPoint x="790" y="210" as="targetPoint" />
          </mxGeometry>
        </mxCell>
        <mxCell id="XJ7JOTKwsbmlr56BRBx6-20" value="" style="endArrow=classic;startArrow=classic;html=1;rounded=0;" edge="1" parent="1">
          <mxGeometry width="50" height="50" relative="1" as="geometry">
            <mxPoint x="910" y="169.57999999999998" as="sourcePoint" />
            <mxPoint x="950" y="170" as="targetPoint" />
          </mxGeometry>
        </mxCell>
        <mxCell id="q0kmvJ9VPLgeH1oMg-wd-39" value="" style="endArrow=classic;startArrow=classic;html=1;rounded=0;entryX=0;entryY=0.5;entryDx=0;entryDy=0;" parent="1" edge="1">
          <mxGeometry width="50" height="50" relative="1" as="geometry">
            <mxPoint x="720" y="494.71" as="sourcePoint" />
            <mxPoint x="820" y="495.14" as="targetPoint" />
          </mxGeometry>
        </mxCell>
        <mxCell id="XJ7JOTKwsbmlr56BRBx6-40" value="HDMI or VGA" style="edgeLabel;html=1;align=center;verticalAlign=middle;resizable=0;points=[];" vertex="1" connectable="0" parent="q0kmvJ9VPLgeH1oMg-wd-39">
          <mxGeometry x="0.307" y="1" relative="1" as="geometry">
            <mxPoint x="-15" y="-10" as="offset" />
          </mxGeometry>
        </mxCell>
        <mxCell id="q0kmvJ9VPLgeH1oMg-wd-44" value="Display" style="rounded=0;whiteSpace=wrap;html=1;" parent="1" vertex="1">
          <mxGeometry x="820" y="455" width="90" height="80" as="geometry" />
        </mxCell>
        <mxCell id="XJ7JOTKwsbmlr56BRBx6-26" value="" style="endArrow=classic;startArrow=classic;html=1;rounded=0;entryX=-0.001;entryY=0.849;entryDx=0;entryDy=0;entryPerimeter=0;exitX=1;exitY=0.5;exitDx=0;exitDy=0;" edge="1" parent="1" source="q0kmvJ9VPLgeH1oMg-wd-28" target="q0kmvJ9VPLgeH1oMg-wd-1">
          <mxGeometry width="50" height="50" relative="1" as="geometry">
            <mxPoint x="378" y="564.71" as="sourcePoint" />
            <mxPoint x="430.2399999999999" y="563.1899999999999" as="targetPoint" />
          </mxGeometry>
        </mxCell>
        <mxCell id="XJ7JOTKwsbmlr56BRBx6-32" value="&lt;font style=&quot;font-size: 10px;&quot;&gt;Hard IP&lt;/font&gt;" style="text;html=1;align=center;verticalAlign=middle;resizable=0;points=[];autosize=1;strokeColor=default;fillColor=none;" vertex="1" parent="1">
          <mxGeometry x="810" y="190" width="60" height="30" as="geometry" />
        </mxCell>
        <mxCell id="q0kmvJ9VPLgeH1oMg-wd-38" value="" style="endArrow=classic;startArrow=classic;html=1;rounded=0;entryX=0;entryY=0.5;entryDx=0;entryDy=0;" parent="1" edge="1">
          <mxGeometry width="50" height="50" relative="1" as="geometry">
            <mxPoint x="720" y="370" as="sourcePoint" />
            <mxPoint x="820" y="370" as="targetPoint" />
          </mxGeometry>
        </mxCell>
        <mxCell id="q0kmvJ9VPLgeH1oMg-wd-43" value="Camera" style="rounded=0;whiteSpace=wrap;html=1;" parent="1" vertex="1">
          <mxGeometry x="820" y="330" width="90" height="80" as="geometry" />
        </mxCell>
        <mxCell id="XJ7JOTKwsbmlr56BRBx6-41" value="PMOD" style="edgeLabel;html=1;align=center;verticalAlign=middle;resizable=0;points=[];" vertex="1" connectable="0" parent="1">
          <mxGeometry x="770" y="360" as="geometry" />
        </mxCell>
      </root>
    </mxGraphModel>
  </diagram>
</mxfile>
